Coordinates
version=1
nRows=6
nColumns=34
inDegrees=yes

Units are S.I. units (second, meters, Newtons, ...)
If the header above contains a line with 'inDegrees', this indicates whether rotational values are in degrees (yes) or radians (no).

endheader
time	pelvis_tilt	pelvis_list	pelvis_rotation	pelvis_tx	pelvis_ty	pelvis_tz	hip_flexion_r	hip_adduction_r	hip_rotation_r	knee_angle_r	ankle_angle_r	subtalar_angle_r	mtp_angle_r	hip_flexion_l	hip_adduction_l	hip_rotation_l	knee_angle_l	ankle_angle_l	subtalar_angle_l	mtp_angle_l	lumbar_extension	lumbar_bending	lumbar_rotation	arm_flex_r	arm_add_r	arm_rot_r	elbow_flex_r	pro_sup_r	arm_flex_l	arm_add_l	arm_rot_l	elbow_flex_l	pro_sup_l
      5.60000000	     -1.98590198	     -0.36481212	     11.45384315	     -3.41689604	      1.51243396	      0.32604864	     19.66992715	      4.70878753	     -7.59064888	      8.77590376	     -6.79864365	     -0.50102838	      0.00000000	    -19.95140420	      0.98582466	     -1.14829537	     13.19406226	     14.94769074	      2.17429949	      0.00000000	     -6.69221456	      2.10718214	     -9.74081669	      0.82045668	     -9.67637983	     54.11728255	     10.40637860	     52.99333964	     10.15298378	    -10.81806106	     29.36098769	     30.12814527	     54.68180977
      5.61666670	     -1.68560490	     -1.28689895	     11.49323193	     -3.39218532	      1.51561949	      0.32298669	     18.94654688	      5.76562535	     -6.88034763	      9.89249677	     -5.62909070	     -1.79791213	      0.00000000	    -19.33454322	     -0.17445928	     -0.68991086	     16.48370090	     12.79528136	      0.15704143	      0.00000000	     -7.02122630	      3.40950896	     -9.27283587	      1.08636098	    -10.20466719	     55.26731115	     10.42400563	     52.23467052	     10.08923446	    -10.19725955	     29.63003489	     28.85076294	     55.41116457
      5.63333330	     -1.43209639	     -2.25198532	     11.60793740	     -3.36715094	      1.51729721	      0.32002058	     18.03808288	      6.89933796	     -6.49179481	     10.98352306	     -4.92405404	     -3.13096790	      0.00000000	    -18.59976061	     -1.43157523	     -0.28625329	     19.59430579	      9.63313732	     -1.46624126	      0.00000000	     -7.09571741	      4.67226960	     -8.63836276	      1.05004902	    -10.71406739	     56.85625824	     10.42654797	     51.18535451	     10.01303922	     -9.47557505	     30.25830172	     27.05362878	     56.23142222
      5.65000000	     -1.14398251	     -3.36719546	     11.50212417	     -3.34297918	      1.51587209	      0.31763251	     16.87255516	      8.36077756	     -5.93901206	     11.80794644	     -4.03533008	     -4.12388805	      0.00000000	    -17.62591050	     -2.87543352	     -0.23868299	     22.95872851	      5.93428587	     -2.65566271	      0.00000000	     -6.79012792	      5.97999702	     -7.94368474	      0.73269924	    -11.18670407	     58.47592676	     10.43005763	     49.99891638	      9.45748182	     -8.79427641	     31.16327399	     25.10947100	     56.83609817
      5.66666670	     -0.90238146	     -4.47613805	     11.19460706	     -3.32259144	      1.51278043	      0.31473937	     15.81515529	      9.83904099	     -5.32426851	     12.70982069	     -2.85273340	     -4.96530821	      0.00000000	    -15.99227916	     -4.28073194	     -0.19924478	     27.11454737	      1.44025139	     -3.65508072	      0.00000000	     -6.47326335	      7.33211836	     -7.17732632	      0.57923774	    -11.80844995	     59.69934424	     10.51290814	     49.08073517	      8.66271815	     -8.14817101	     32.00881313	     23.48771384	     57.07882565
      5.68333330	     -0.76218876	     -5.57321516	     10.59683806	     -3.30202675	      1.51049675	      0.31291194	     14.74553452	     11.31826294	     -4.73362328	     13.59145648	     -1.60501537	     -5.67965204	      0.00000000	    -13.99293920	     -5.55198058	     -0.02864942	     31.52570856	     -3.12389434	     -4.38265971	      0.00000000	     -5.91135391	      8.53113810	     -6.30750387	      0.57073930	    -12.38601362	     61.11118318	     10.75117968	     48.18234109	      7.75764583	     -7.52164317	     33.01083330	     21.50438915	     57.11319339
